<svg width="36" height="22" viewBox="0 0 36 22" xmlns="http://www.w3.org/2000/svg">
    <path d="M28.696 3.331c.366.35.302.86.045 1.647l-.08.23-1.172 3.278-.203.568a741.717 741.717 0 0 0-1.356 3.812c-.65 1.902.853 1.847 1.745-.068l.15-.33c.47-1.07.996-2.519.996-2.519l.078-.25c.163-.551.2-.89.078-1.017-.046-.05.02-.113.078-.145.96-.502 1.957-.055 1.486 1.371l-.074.203-1.15 2.988c-.294.744-.259 1.45.18 1.45.298-.002.633-.173 1-.487.7-.6 1.259-1.66 1.528-2.248l.226-.518c.162-.383.415-1.004.627-1.633.103-.297.16-.609.172-.924a.201.201 0 0 1 .084-.206c.223-.123.471-.188.724-.189a.774.774 0 0 1 .635.316c.179.25.237.646.084 1.142l-.045.134L32.9 14.38v.011c.838-.519 1.594-.583 2.07-.413l.078.03-.002-.005c.648.29.863 1.093.407 1.594-.045.05-.157.038-.157-.04-.04-.548-1.04-1.517-2.536-.557l-.113.076-.657 1.79c-1.099 2.957-2.279 5.058-3.951 4.57-1.166-.341-1.031-2.065.223-3.492.868-.957 1.81-1.84 2.814-2.642l.081-.23.27-.8.074-.214.069-.232-.388.455c-.336.379-1.035 1.065-2.092.921l-.14-.024-.117-.027c-.876-.231-1.115-.89-1.135-1.464-.929 1.19-1.887 1.535-2.518 1.519-.845-.022-1.465-.678-1.053-1.922l.287-.849c.3-.873.735-2.129 1.176-3.392l.24-.688c.516-1.483 1.004-2.883 1.244-3.585l.072-.253c.153-.562.19-.925.008-1.08-.054-.046.022-.118.087-.155.444-.249 1.069-.321 1.454.048zm2.172 12.847-.273.23c-.708.61-2.196 1.98-2.655 3.104-.219.537-.163.963.212 1 .829.086 1.695-1.621 2.629-4.071l.072-.19.015-.073zM7.09 5.25l-.095.301c-.152.464-.468 1.398-.835 2.47l-.516 1.498C7.678 9.015 11.309 6.574 11.73 5c.052-.073.126-.099.245-.016.215.148.298.517.215.86-.331 1.36-2.782 3.289-4.934 4.28l.075.201c.332.86 1.14 2.71 1.749 3.882.72 1.397 1.482 2.05 2.665 2.122.626.038 1.291-.194 1.675-.534l.077-.075-.005.013c.084-.091.221.035.158.145a2.801 2.801 0 0 1-2.164 1.285c-2.752.19-3.805-1.734-5.77-6.495l-.544.202-.923 2.609c-.41 1.286-.436 1.99-.155 2.193.063.04.032.15-.077.186-1.096.356-2.105-.312-1.544-1.99l2.998-8.794c.185-.58.086-.953-.213-1.034C3.828 3.65.52 6.771.995 9.655c.077.468.38.744.56.748l.037-.003a.056.056 0 0 1 .053.017.06.06 0 0 1 .015.054.651.651 0 0 1-.8.462c-.508-.114-.673-.677-.701-.967-.28-2.983 2.647-6.564 5.353-6.855 1.031-.112 2 .43 1.578 2.138zm10.43 4.422-.031.113-1.228 3.656c-.132.381-.043.778.217.852.762.216 1.747-.96 2.225-2.12l.172-.427c.145-.372.27-.719.361-.975l.2-.581c.21-.63.37-1.194.247-1.478-.033-.075.02-.114.097-.157.218-.114.965-.37 1.362.03.298.3.264.784-.005 1.517l-.05.132.116-.148c1.156-1.45 2.052-1.89 2.813-1.59l.076.032c1.033.481.497 2.337-.917 2.456-.078.006-.14-.044-.092-.143l.023-.04c.17-.271.154-.855-.345-.906-.5-.05-1.228.54-1.751 1.274-.47.65-.954 1.753-1.44 3.26-.119.366-.063.453-.049.477a.046.046 0 0 1 0 .042c-.061.122-.418.267-.763.267-.704-.003-.993-.423-.853-1.091-.8.79-1.609 1.171-2.322 1.104a1.087 1.087 0 0 1-.793-.465 1.161 1.161 0 0 1-.176-.925c-.619.81-1.536 1.464-2.47 1.374-.935-.09-1.518-.746-1.215-2.145.255-1.164.69-2.37.956-3.149.223-.652.268-1.078.128-1.232-.045-.05.024-.112.084-.145.733-.397 1.905-.14 1.574.936l-.13.415c-.356 1.11-.862 2.54-.975 2.9-.32 1.026-.126 1.58.327 1.606.426.024.983-.379 1.405-1.003l.078-.12c.715-1.06 1.073-2.37 1.4-3.341l.064-.19c.089-.25.229-.836.08-1.054-.04-.055.03-.116.12-.166.663-.38 1.846-.288 1.48 1.148zM11.174.97l.742 2.276-.481.167-.484-1.486-.293 1.153-.05.017-.9-.725.481 1.476-.474.165-.743-2.276.521-.181.894.76.265-1.165.522-.18zm13.127.342 1.835.724-.167.456-.682-.27-.66 1.79-.477-.189.66-1.789-.676-.266.167-.456zM21.67.581l1.703.428-.106.457-1.21-.303-.11.474 1.063.266-.107.457-1.064-.267-.115.49 1.226.308-.108.456-1.719-.432.547-2.334zM13.643.425l1.383 2.206-.526.094-.298-.493-.968.176-.12.568-.513.093.578-2.56.464-.084zM18.64.164l.508.055-.105 1.044L20.087.32l.614.067-1.044.912.844 1.481-.61-.066-.614-1.095-.297.258-.075.73-.507-.056.242-2.387zm-1.302.203c.12.123.195.284.212.455l.005.094a.75.75 0 0 1-.406.73l-.069.03.594.84-.598.018-.522-.75-.39.012.024.768-.51.015-.075-2.4 1.062-.034a.905.905 0 0 1 .673.222zm-3.824.726-.174.822.609-.109-.435-.713zm3.123-.47-.504.018.016.683.517-.018c.218-.006.353-.122.378-.293l.004-.06-.006-.058c-.027-.165-.148-.251-.333-.268l-.072-.004z" fill="#D9D9D9" fill-rule="nonzero"/>
</svg>
